<svg width="24" height="24" viewBox="0 0 24 24" fill="none" xmlns="http://www.w3.org/2000/svg">
<path d="M15.6923 15.4286V17.1429H17.5385V15.4286H15.6923ZM4.96246 0.188571L0.347077 3.61714C0.0406153 3.84343 0 4.23429 0 4.57714V7.71429C0 8.67943 0.343385 9.56914 0.923077 10.2857V23.1429C0.923077 23.3702 1.02033 23.5882 1.19344 23.7489C1.36655 23.9097 1.60134 24 1.84615 24H4.61538V14.5714C4.61538 14.3441 4.71264 14.1261 4.88575 13.9653C5.05886 13.8046 5.29365 13.7143 5.53846 13.7143H11.0769C11.3217 13.7143 11.5565 13.8046 11.7296 13.9653C11.9027 14.1261 12 14.3441 12 14.5714V24H22.1538C22.3987 24 22.6334 23.9097 22.8066 23.7489C22.9797 23.5882 23.0769 23.3702 23.0769 23.1429V10.2857C23.6566 9.56914 24 8.67943 24 7.71429V4.57029C24 4.22743 23.9594 3.84343 23.6529 3.61714L19.0375 0.188571C18.8741 0.0668455 18.671 0.000346533 18.4615 0H5.53846C5.32898 0.000346533 5.12586 0.0668455 4.96246 0.188571ZM1.84615 7.71429V5.14286H7.38462V7.71429C7.38462 8.39627 7.09286 9.05032 6.57353 9.53256C6.0542 10.0148 5.34983 10.2857 4.61538 10.2857C3.88094 10.2857 3.17657 10.0148 2.65724 9.53256C2.13791 9.05032 1.84615 8.39627 1.84615 7.71429ZM9.23077 7.71429V5.14286H14.7692V7.71429C14.7692 8.39627 14.4775 9.05032 13.9581 9.53256C13.4388 10.0148 12.7344 10.2857 12 10.2857C11.2656 10.2857 10.5612 10.0148 10.0419 9.53256C9.52253 9.05032 9.23077 8.39627 9.23077 7.71429ZM16.6154 7.71429V5.14286H22.1538V7.71429C22.1538 8.39627 21.8621 9.05032 21.3428 9.53256C20.8234 10.0148 20.1191 10.2857 19.3846 10.2857C18.6502 10.2857 17.9458 10.0148 17.4265 9.53256C16.9071 9.05032 16.6154 8.39627 16.6154 7.71429ZM3.55385 3.42857L5.86154 1.71429H8.36308L7.67077 3.42857H3.55385ZM9.64062 3.42857L10.3329 1.71429H13.6431L14.2578 3.42857H9.64062ZM15.5889 1.71429H18.1366L20.4443 3.42857H16.2037L15.5889 1.71429ZM13.8462 14.5714C13.8462 14.3441 13.9434 14.1261 14.1165 13.9653C14.2896 13.8046 14.5244 13.7143 14.7692 13.7143H18.4615C18.7064 13.7143 18.9411 13.8046 19.1143 13.9653C19.2874 14.1261 19.3846 14.3441 19.3846 14.5714V18C19.3846 18.2273 19.2874 18.4453 19.1143 18.6061C18.9411 18.7668 18.7064 18.8571 18.4615 18.8571H14.7692C14.5244 18.8571 14.2896 18.7668 14.1165 18.6061C13.9434 18.4453 13.8462 18.2273 13.8462 18V14.5714ZM6.46154 24H10.1538V15.4286H6.46154V24Z" fill="#181820"/>
</svg>
